<svg id="Layer_1" data-name="Layer 1" xmlns="http://www.w3.org/2000/svg" viewBox="0 0 316 40"><defs><style>.cls-1{fill:#fff;}</style></defs><title>scottshealy-wordmark-white</title><g id="Wordmark"><g id="Shealy"><path class="cls-1" d="M147.89,31.95L151.11,30q3.39,6.29,7.83,6.29a7.46,7.46,0,0,0,3.57-.89,6.28,6.28,0,0,0,3.42-5.58,6.49,6.49,0,0,0-1.28-3.75A30.87,30.87,0,0,0,158.17,20a33.15,33.15,0,0,1-5.88-5.2,9.56,9.56,0,0,1-2-5.83,8.89,8.89,0,0,1,1.18-4.53,8.46,8.46,0,0,1,3.33-3.22A9.52,9.52,0,0,1,159.45,0a9.88,9.88,0,0,1,5,1.33,17.21,17.21,0,0,1,4.92,4.91L166.28,8.6a14.86,14.86,0,0,0-3.63-3.75,6.22,6.22,0,0,0-3.27-.91,5.16,5.16,0,0,0-3.74,1.4,4.59,4.59,0,0,0-1.45,3.44,5.9,5.9,0,0,0,.51,2.41,8.87,8.87,0,0,0,1.87,2.54q0.74,0.72,4.88,3.81a27.58,27.58,0,0,1,6.73,6.5A10.53,10.53,0,0,1,170,29.75a9.75,9.75,0,0,1-3.12,7.2A10.44,10.44,0,0,1,159.3,40a11.07,11.07,0,0,1-6.24-1.85A16.9,16.9,0,0,1,147.89,31.95Z"/><path class="cls-1" d="M174.79,0h3.78V16.78H197.8V0h3.78V40H197.8V20.69H178.56V40h-3.78V0Z"/><path class="cls-1" d="M206.59,0h21.65V3.92H210.36V16.45h17.72v3.92H210.36V36.08h17.72V40h-21.5V0Z"/><path class="cls-1" d="M250.2,0l17.62,40h-4.08L257.8,26.84H241.52L235.64,40h-4.21L249.27,0h0.92Zm-0.48,8.5L243.25,23h12.92Z"/><path class="cls-1" d="M271.57,0h3.78V36.14h14.54V40H271.57V0Z"/><path class="cls-1" d="M288.11,0h4.34l9.67,16.5L311.63,0H316L304,20.88V40h-3.72V20.88Z"/></g><g id="Scott"><path class="cls-1" d="M0,31.95L3.21,30Q6.6,36.3,11,36.3a7.46,7.46,0,0,0,3.57-.89A6.28,6.28,0,0,0,18,29.83a6.49,6.49,0,0,0-1.28-3.75A30.88,30.88,0,0,0,10.27,20a33.15,33.15,0,0,1-5.88-5.2,9.56,9.56,0,0,1-2-5.83A8.89,8.89,0,0,1,3.57,4.4,8.46,8.46,0,0,1,6.9,1.18,9.52,9.52,0,0,1,11.56,0a9.88,9.88,0,0,1,5,1.33,17.2,17.2,0,0,1,4.92,4.91L18.39,8.6a14.86,14.86,0,0,0-3.63-3.75,6.22,6.22,0,0,0-3.27-.91,5.16,5.16,0,0,0-3.74,1.4A4.59,4.59,0,0,0,6.29,8.78a5.9,5.9,0,0,0,.51,2.41,8.87,8.87,0,0,0,1.87,2.54q0.74,0.72,4.88,3.81A27.58,27.58,0,0,1,20.29,24a10.53,10.53,0,0,1,1.82,5.72A9.75,9.75,0,0,1,19,36.94,10.44,10.44,0,0,1,11.4,40a11.07,11.07,0,0,1-6.24-1.85A16.9,16.9,0,0,1,0,31.95Z"/><path class="cls-1" d="M61.08,8l-3,2.3a16.32,16.32,0,0,0-5.92-4.91,17.21,17.21,0,0,0-7.59-1.67,16.67,16.67,0,0,0-8.37,2.19,15.64,15.64,0,0,0-6,5.88,16.36,16.36,0,0,0-2.12,8.3,15.64,15.64,0,0,0,4.74,11.62,16.35,16.35,0,0,0,12,4.66A16.76,16.76,0,0,0,58.1,30.14l3,2.28A19.07,19.07,0,0,1,54,38a22,22,0,0,1-9.44,2q-9.91,0-15.64-6.65a20.18,20.18,0,0,1-4.8-13.57A18.94,18.94,0,0,1,30,5.71,20,20,0,0,1,44.54,0a21.25,21.25,0,0,1,9.55,2.11A18.59,18.59,0,0,1,61.08,8Z"/><path class="cls-1" d="M82.44,0A19.52,19.52,0,0,1,96.8,5.77,19.3,19.3,0,0,1,102.59,20a19.4,19.4,0,0,1-5.77,14.19A19.05,19.05,0,0,1,82.75,40a19.26,19.26,0,0,1-14.19-5.8,19.14,19.14,0,0,1-5.78-14A20.42,20.42,0,0,1,65.41,10,19.43,19.43,0,0,1,82.44,0Zm0.17,3.7a15.47,15.47,0,0,0-7.95,2.2,15.78,15.78,0,0,0-5.87,5.93,16.6,16.6,0,0,0-2.11,8.32,15.6,15.6,0,0,0,4.67,11.47A15.33,15.33,0,0,0,82.61,36.3a16.07,16.07,0,0,0,8.14-2.15,15.34,15.34,0,0,0,5.84-5.88A16.63,16.63,0,0,0,98.68,20a16.22,16.22,0,0,0-2.1-8.2,15.72,15.72,0,0,0-5.9-5.87A15.88,15.88,0,0,0,82.61,3.7Z"/><path class="cls-1" d="M103.26,3.92V0H124V3.92h-8.42V40h-3.85V3.92h-8.42Z"/><path class="cls-1" d="M125.65,3.92V0h20.7V3.92h-8.42V40h-3.85V3.92h-8.42Z"/></g></g></svg>