<svg id="Layer_1" data-name="Layer 1" xmlns="http://www.w3.org/2000/svg" viewBox="0 0 1921.18 1080"><defs><style>.cls-1{fill:#307fe2;}.cls-2{fill:none;}.cls-3{fill:#d86018;}</style></defs><title>scottshealy-footer</title><path class="cls-1" d="M1920,1080H0Q0,567,0,54C254.6,84.38,515,92.66,770.49,70.89c112.24-9.56,224.38-20.3,336.6-30.12,117.48-10.29,233.33-15.8,351.3-14.55C1612.65,27.86,1766.78,35.72,1920,54Q1920,567,1920,1080Z" transform="translate(0.59)"/><path class="cls-2" d="M1920,54c-153.22-18.28-307.35-26.14-461.61-27.78-118-1.25-233.82,4.26-351.3,14.55C994.87,50.6,882.73,61.33,770.49,70.89,515,92.66,254.6,84.38,0,54V0H1920Q1920,27,1920,54Z" transform="translate(0.59)"/><path class="cls-3" d="M476.65,88.11C321.79,88.11,162.2,78.39-.59,59L0.59,49C268.06,80.95,526.94,86.62,770.07,65.91,833.23,60.53,897.42,54.68,959.5,49c48.22-4.39,98.09-8.94,147.15-13.23,125.41-11,240.48-15.74,351.79-14.57C1627.56,23,1778.73,32.11,1920.59,49L1919.41,59c-141.5-16.88-292.31-26-461.07-27.74-111-1.17-225.74,3.58-350.81,14.53-49,4.29-98.9,8.84-147.12,13.23-62.09,5.66-126.3,11.51-189.49,16.89C675.13,84,576.87,88.11,476.65,88.11Z" transform="translate(0.59)"/></svg>